<?xml version="1.0" encoding="utf-8"?>
<!-- Generator: Adobe Illustrator 16.0.0, SVG Export Plug-In . SVG Version: 6.00 Build 0)  -->
<!DOCTYPE svg PUBLIC "-//W3C//DTD SVG 1.1//EN" "http://www.w3.org/Graphics/SVG/1.1/DTD/svg11.dtd">
<svg version="1.1" id="Layer_1" xmlns="http://www.w3.org/2000/svg" xmlns:xlink="http://www.w3.org/1999/xlink" x="0px" y="0px"
	 width="612px" height="612px" viewBox="0 0 612 612" enable-background="new 0 0 612 612" xml:space="preserve">
<rect x="-13.5" y="-11.5" fill="#FDB813" width="636" height="631"/>
<path fill="#231F20" d="M572.5-0.396h-524H0V614h12.104H48.5h524H602h12V-0.396H572.5z M48.5,497.5V105.604h524V497.5H48.5z"/>
<g>
	<path fill="#231F20" d="M105.682,195.414l-8.43,22.781h-8.229l26.294-70.25h8.229l26.293,70.25h-8.229l-8.43-22.781H105.682z
		 M119.431,156.876l-11.24,31.512h22.58L119.431,156.876z"/>
	<path fill="#231F20" d="M199.612,202.64l25.29-54.695h10.337v70.25h-7.828v-58.508l-23.785,52.085h-8.028l-23.785-52.085v58.508
		h-7.828v-70.25h10.438L199.612,202.64z"/>
	<path fill="#231F20" d="M266.043,195.414l-8.43,22.781h-8.229l26.294-70.25h8.229l26.293,70.25h-8.229l-8.43-22.781H266.043z
		 M279.792,156.876l-11.24,31.512h22.58L279.792,156.876z"/>
	<path fill="#231F20" d="M320.032,212.274l41.347-57.003h-40.043v-7.326h50.58v6.021l-41.447,56.902h41.648v7.326h-52.085V212.274z"
		/>
	<path fill="#231F20" d="M418.78,146.64c20.474,0,35.828,15.957,35.828,36.43c0,20.673-15.455,36.43-35.928,36.43
		c-20.373,0-35.728-15.555-35.728-36.43C382.953,162.396,398.408,146.64,418.78,146.64z M418.78,211.873
		c15.556,0,27.397-12.144,27.397-28.803c0-16.458-11.842-28.802-27.397-28.802c-15.555,0-27.397,12.344-27.397,28.802
		C391.383,199.729,403.226,211.873,418.78,211.873z"/>
	<path fill="#231F20" d="M471.362,147.945h8.129l38.737,57.404v-57.404h8.029v70.25h-8.029l-38.737-57.204v57.204h-8.129V147.945z"
		/>
	<path fill="#FFFFFF" d="M88.321,257.945h27.397c14.953,0,23.684,9.233,23.684,23.383c0,13.849-9.233,23.584-23.383,23.584h-7.727
		v23.282H88.321V257.945z M112.507,288.152c4.215,0,6.423-2.91,6.423-6.925c0-3.813-2.409-6.523-6.222-6.523h-4.416v13.448H112.507z
		"/>
	<path fill="#FFFFFF" d="M146.927,257.945h24.788c17.462,0,25.792,8.43,25.792,22.179c0,7.526-3.211,14.752-9.233,18.566
		l16.057,29.504h-21.979l-11.842-24.788h-3.613v24.788h-19.971V257.945z M170.209,287.149c4.516,0,6.925-2.71,6.925-6.323
		c0-3.914-2.409-6.122-6.925-6.122h-3.312v12.444H170.209z"/>
	<path fill="#FFFFFF" d="M203.825,292.97c0-20.272,14.752-36.33,37.935-36.33s37.935,16.057,37.935,36.33
		c0,20.572-14.752,36.529-37.935,36.529S203.825,313.542,203.825,292.97z M224.7,292.97c0,10.537,6.824,18.265,17.061,18.265
		s17.061-7.728,17.061-18.265c0-10.237-6.824-18.064-17.061-18.064S224.7,282.733,224.7,292.97z"/>
	<path fill="#FFFFFF" d="M287.819,257.945H310.7c22.58,0,37.534,13.147,37.534,35.125c0,21.677-14.753,35.125-37.534,35.125h-22.881
		V257.945z M310.299,311.335c10.236,0,17.161-6.122,17.161-18.265c0-12.344-6.925-18.265-17.161-18.265h-2.509v36.53H310.299z"/>
	<path fill="#FFFFFF" d="M356.459,300.697v-42.752h19.971v42.853c0,6.523,4.115,10.637,10.638,10.637
		c6.523,0,10.639-4.114,10.639-10.637v-42.853h19.971v42.752c0,16.96-10.839,28.802-30.609,28.802
		C367.298,329.499,356.459,317.657,356.459,300.697z"/>
	<path fill="#FFFFFF" d="M463.436,256.64c8.43,0,16.157,2.509,21.275,6.021l-5.52,17.462c-3.312-2.71-8.129-5.219-14.753-5.219
		c-10.638,0-17.763,7.828-17.763,18.064c0,10.437,7.125,18.265,17.763,18.265c6.624,0,11.441-2.509,14.753-5.218l5.52,17.461
		c-5.118,3.513-12.846,6.021-21.275,6.021c-22.781,0-37.634-16.157-37.634-36.529C425.802,272.798,440.654,256.64,463.436,256.64z"
		/>
	<path fill="#FFFFFF" d="M503.374,275.407h-14.351v-17.462h48.874v17.462h-14.552v52.787h-19.972V275.407z"/>
	<path fill="#231F20" d="M94.091,367.944h8.129v70.25h-8.129V367.944z"/>
	<path fill="#231F20" d="M117.975,367.944h8.129l38.738,57.404v-57.404h8.028v70.25h-8.028l-38.738-57.204v57.204h-8.129V367.944z"
		/>
	<path fill="#231F20" d="M224.147,415.413l-8.43,22.781h-8.229l26.294-70.25h8.229l26.293,70.25h-8.229l-8.43-22.781H224.147z
		 M237.896,376.876l-11.24,31.512h22.58L237.896,376.876z"/>
	<path fill="#FFFFFF" d="M295.497,367.944h27.398c14.953,0,23.684,9.232,23.684,23.383c0,13.85-9.232,23.584-23.383,23.584h-7.728
		v23.283h-19.971V367.944z M319.683,398.151c4.215,0,6.423-2.91,6.423-6.925c0-3.813-2.408-6.522-6.222-6.522h-4.416v13.447H319.683
		z"/>
	<path fill="#FFFFFF" d="M350.59,402.969c0-20.272,14.752-36.329,37.935-36.329s37.935,16.057,37.935,36.329
		c0,20.573-14.752,36.53-37.935,36.53S350.59,423.542,350.59,402.969z M371.464,402.969c0,10.538,6.824,18.266,17.061,18.266
		s17.061-7.728,17.061-18.266c0-10.236-6.824-18.064-17.061-18.064S371.464,392.732,371.464,402.969z"/>
	<path fill="#FFFFFF" d="M446.626,414.209c2.008,3.713,6.021,6.925,9.635,6.925c3.111,0,4.415-1.305,4.415-3.111
		c0-7.125-28.602-7.326-28.602-29.706c0-13.348,9.735-21.677,24.287-21.677c16.157,0,22.078,11.541,23.985,17.061l-16.56,7.427
		c-1.405-2.911-3.111-6.423-7.928-6.423c-2.409,0-3.813,1.305-3.813,3.211c0,7.828,28.802,7.427,28.802,28.603
		c0,13.447-8.932,22.981-25.189,22.981c-16.559,0-23.885-12.144-25.691-17.061L446.626,414.209z"/>
	<path fill="#FFFFFF" d="M499.711,385.406H485.36v-17.462h48.874v17.462h-14.552v52.788h-19.972V385.406z"/>
</g>
<rect x="48.5" y="105.604" fill="none" stroke="#FFFFFF" stroke-width="5.5764" stroke-miterlimit="10" width="525" height="394"/>
</svg>
